<svg width="200" height="200" viewBox="0 0 24 24" fill="none" xmlns="http://www.w3.org/2000/svg">
  <path d="M1 1L23 23M16.72 11.06L18.42 12.76C19.46 12.01 20.25 10.82 20.25 9.49993C20.25 7.15993 18.33 5.24993 16 5.24993C15.65 5.24993 15.31 5.28993 14.98 5.37993V5.24993C14.98 3.58993 13.64 2.24993 11.98 2.24993C11.39 2.24993 10.84 2.41993 10.38 2.70993M8.11 8.11L12.02 12.02C12.02 12.01 12.02 12 12.02 11.9999C12.02 10.3399 10.68 8.99993 9.02 8.99993C9.01 8.99993 9 8.99993 8.99 8.99993L8.11 8.11ZM3.54 3.54L6.94 6.94C4.69 7.39 3 9.38 3 11.7499C3 14.5099 5.24 16.7499 8 16.7499H16.75L20.46 20.46M12 21.7499V18.7499" stroke="currentColor" stroke-width="1.5" stroke-linecap="round" stroke-linejoin="round"/>
</svg>
